<?xml version="1.0" encoding="UTF-8" standalone="no"?>
<svg
   xmlns:dc="http://purl.org/dc/elements/1.1/"
   xmlns:cc="http://creativecommons.org/ns#"
   xmlns:rdf="http://www.w3.org/1999/02/22-rdf-syntax-ns#"
   xmlns:svg="http://www.w3.org/2000/svg"
   xmlns="http://www.w3.org/2000/svg"
   xmlns:sodipodi="http://sodipodi.sourceforge.net/DTD/sodipodi-0.dtd"
   xmlns:inkscape="http://www.inkscape.org/namespaces/inkscape"
   version="1.1"
   id="Layer_1"
   x="0px"
   y="0px"
   width="1000.4"
   height="400"
   viewBox="0 0 1000.4 400"
   xml:space="preserve"
   inkscape:version="0.91 r13725"
   sodipodi:docname="workflow.svg"><metadata
     id="metadata95"><rdf:RDF><cc:Work
         rdf:about=""><dc:format>image/svg+xml</dc:format><dc:type
           rdf:resource="http://purl.org/dc/dcmitype/StillImage" /><dc:title></dc:title></cc:Work></rdf:RDF></metadata><defs
     id="defs93" /><sodipodi:namedview
     pagecolor="#ffffff"
     bordercolor="#666666"
     borderopacity="1"
     objecttolerance="10"
     gridtolerance="10"
     guidetolerance="10"
     inkscape:pageopacity="0"
     inkscape:pageshadow="2"
     inkscape:window-width="1498"
     inkscape:window-height="700"
     id="namedview91"
     showgrid="false"
     inkscape:zoom="0.67848293"
     inkscape:cx="456.41949"
     inkscape:cy="218.88856"
     inkscape:window-x="0"
     inkscape:window-y="0"
     inkscape:window-maximized="0"
     inkscape:current-layer="Layer_1" /><style
     id="style3">.s0{stop-color:#55A8C9;}</style><style
     type="text/css"
     id="style5">
	.st0{fill:#2F3232;}
	.st1{fill:#2F3232;stroke:#FFFFFF;stroke-width:6;stroke-linecap:round;stroke-miterlimit:10;}
	.st2{fill:#FFFFFF;}
	.st3{fill:none;stroke:url(#SVGID_1_);stroke-width:8;stroke-linecap:round;stroke-miterlimit:10;}
	.st4{fill:url(#SVGID_2_);}
	.st5{fill:none;stroke:#E17946;stroke-width:8;stroke-linecap:round;stroke-miterlimit:10;}
	.st6{fill:none;stroke:#76C0C2;stroke-width:8;stroke-linecap:round;stroke-miterlimit:10;}
	.st7{fill:none;stroke:#A272A9;stroke-width:8;stroke-linecap:round;stroke-miterlimit:10;}
	.st8{fill:#2F3232;stroke:#F5D5C2;stroke-width:6.7549;stroke-linecap:round;stroke-miterlimit:10;}
	.st9{fill:#2F3232;stroke:#E07E4F;stroke-width:6.7549;stroke-linecap:round;stroke-miterlimit:10;}
	.st10{fill:#2F3232;stroke:#76C0C2;stroke-width:6.7549;stroke-linecap:round;stroke-miterlimit:10;}
	.st11{fill:#2F3232;stroke:#A272A9;stroke-width:6.7549;stroke-linecap:round;stroke-miterlimit:10;}
	.st12{fill:#2F3232;stroke:#76C0C2;stroke-width:6;stroke-linecap:round;stroke-miterlimit:10;}
	.st13{fill:#2F3232;stroke:#A272A9;stroke-width:6;stroke-linecap:round;stroke-miterlimit:10;}
	.st14{fill:#2F3232;stroke:#E17946;stroke-width:6;stroke-linecap:round;stroke-miterlimit:10;}
	.st15{fill:#E17946;}
	.st16{fill:#A272A9;}
	.st17{fill:#76C0C2;}
	.st18{fill:#898989;}
	.st19{fill:url(#SVGID_3_);}
	.st20{fill:#55A8C9;}
	.st21{display:none;}
	.st22{display:inline;}
	.st23{fill:none;stroke:url(#SVGID_4_);stroke-width:8;stroke-linecap:round;stroke-miterlimit:10;}
	.st24{fill:url(#SVGID_5_);}
	.st25{fill:#A477AA;}
</style><path
     class="st18"
     d="m 124.93552,205.67426 c -1.77733,0 -3.36758,-0.28063 -4.95782,-0.84189 -6.08034,19.55064 -24.321363,33.76928 -45.742878,33.76928 -26.472873,0 -47.987929,-21.51505 -47.987929,-47.89438 0,-26.37933 21.515056,-47.89439 47.894385,-47.89439 21.140879,0 39.194822,13.84447 45.462252,32.92739 1.59024,-0.56126 3.36757,-0.93543 5.23844,-0.93543 0.0935,0 0.28064,0 0.37418,0 -6.82869,-21.79569 -27.127683,-37.60458 -51.074872,-37.60458 -29.466272,0 -53.507008,23.94719 -53.507008,53.50701 0,29.55981 24.040736,53.50701 53.507008,53.50701 24.321369,0 44.900992,-16.27661 51.449042,-38.63356 -0.28063,0.0935 -0.46771,0.0935 -0.6548,0.0935 z"
     id="path7"
     inkscape:connector-curvature="0"
     style="fill:#898989" /><path
     class="st18"
     d="m 134.1028,190.23955 c 0,4.39656 -2.9934,8.04476 -7.10932,8.9802 -0.65481,0.18708 -1.40316,0.28063 -2.15151,0.28063 -1.21606,0 -2.43213,-0.28063 -3.46111,-0.65481 -3.36757,-1.40315 -5.79971,-4.67718 -5.79971,-8.60602 0,-3.83529 2.33859,-7.10932 5.61262,-8.51248 1.12252,-0.46772 2.33859,-0.74835 3.6482,-0.74835 0.65481,0 1.30962,0.0935 1.96442,0.18709 4.20947,0.93544 7.29641,4.58364 7.29641,9.07374 z"
     id="path9"
     inkscape:connector-curvature="0"
     style="fill:#898989" /><linearGradient
     id="SVGID_1_"
     gradientUnits="userSpaceOnUse"
     x1="107.4498"
     y1="158.80659"
     x2="1054.4231"
     y2="158.80659"
     gradientTransform="matrix(0.91080712,0,0,0.9354372,23.279541,42.159844)"><stop
       offset="0"
       stop-color="#898989"
       id="stop12" /><stop
       offset="8.083546e-02"
       stop-color="#55A8C9"
       id="stop14" /><stop
       offset="0.1028"
       stop-color="#55A8C9"
       id="stop16" /><stop
       offset="0.2362"
       stop-color="#55A8C9"
       id="stop18" /><stop
       offset="0.3768"
       stop-color="#6DB7C5"
       id="stop20" /><stop
       offset="0.4909"
       stop-color="#7CC1C3"
       id="stop22" /><stop
       offset="0.7511"
       stop-color="#A477AA"
       id="stop24" /></linearGradient><path
     d="m 965.4184,194.44902 -840.67495,0 c -2.00377,0 -3.64322,-1.68379 -3.64322,-3.74175 0,-2.05796 1.63945,-3.74175 3.64322,-3.74175 l 840.58391,0 c 2.00382,0 3.64318,1.68379 3.64318,3.74175 0,2.05796 -1.54833,3.74175 -3.55214,3.74175 z"
     id="path26"
     style="fill:url(#SVGID_1_)"
     inkscape:connector-curvature="0" /><path
     class="st2"
     d="m 207.53462,190.70727 c 0,1.12252 -0.37417,2.24505 -0.93543,3.08694 l 0,0 c -1.02899,1.4967 -2.71277,2.43214 -4.58365,2.43214 -0.93543,0 -1.87087,-0.28063 -2.61922,-0.65481 -1.68379,-0.93543 -2.89986,-2.80631 -2.89986,-4.86427 0,-3.08694 2.52568,-5.61262 5.51908,-5.61262 3.08695,0.0935 5.51908,2.52568 5.51908,5.61262 z"
     id="path28"
     inkscape:connector-curvature="0"
     style="fill:#ffffff" /><path
     class="st2"
     d="m 827.91658,190.70727 c 0,2.61922 -1.87088,4.86427 -4.30302,5.42553 -0.37417,0.0936 -0.84189,0.18709 -1.21606,0.18709 -2.61923,0 -4.86428,-1.87087 -5.42554,-4.30301 -0.0935,-0.37417 -0.18709,-0.84189 -0.18709,-1.21607 0,-3.08694 2.52568,-5.61262 5.51908,-5.61262 3.08695,0 5.61263,2.43214 5.61263,5.51908 z"
     id="path30"
     inkscape:connector-curvature="0"
     style="fill:#ffffff" /><path
     class="st16"
     d="m 822.30395,178.82722 c -6.54806,0 -11.88005,5.33199 -11.88005,11.88005 0,3.74175 1.77733,7.10932 4.4901,9.26083 l -13.28321,54.06827 c -1.96442,8.23184 -9.35437,13.93801 -17.77331,13.93801 l -31.05651,0 c -1.87088,-17.67976 -16.83787,-31.43069 -34.98535,-31.43069 -18.14748,0 -33.11448,13.75093 -34.98535,31.43069 l -31.05652,0 c -8.41893,0 -15.71534,-5.70617 -17.77331,-13.93801 l -15.6218,-64.26454 c -0.46772,-1.96442 -2.52568,-3.27403 -4.4901,-2.71277 -1.96441,0.46772 -3.18048,2.52568 -2.71276,4.4901 l 15.80888,64.26454 c 2.80632,11.50588 13.09613,19.55064 24.97618,19.55064 l 30.96297,0 c 1.87087,17.67976 16.83787,31.43069 34.98535,31.43069 18.14748,0 33.11448,-13.75093 34.98535,-31.43069 l 31.05652,0 c 11.88005,0 22.16986,-8.04476 24.97617,-19.55064 l 13.09612,-53.22638 c 0.0935,0 0.18709,0 0.28063,0 6.54806,0 11.88005,-5.33199 11.88005,-11.88005 0,-6.54806 -5.33199,-11.88005 -11.88005,-11.88005 z m -75.02206,96.53712 c -1.87088,14.49927 -14.31219,25.81806 -29.27919,25.81806 -15.06053,0 -27.50185,-11.22524 -29.37272,-25.81806 -0.18709,-1.21607 -0.18709,-2.43214 -0.18709,-3.74175 0,-1.30962 0.0935,-2.52568 0.18709,-3.74175 1.87087,-14.49928 14.31219,-25.81807 29.37272,-25.81807 15.06054,0 27.50186,11.31879 29.27919,25.81807 0.18709,1.21607 0.18709,2.43213 0.18709,3.74175 0,1.30961 -0.0935,2.52568 -0.18709,3.74175 z m 69.69007,-83.441 c -0.0935,-0.37418 -0.18709,-0.8419 -0.18709,-1.21607 0,-3.08694 2.52568,-5.61262 5.51908,-5.61262 3.08695,0 5.51908,2.52568 5.51908,5.61262 0,2.61922 -1.87087,4.86427 -4.30301,5.42553 -0.37417,0.0936 -0.84189,0.18709 -1.21607,0.18709 -2.61922,-0.0935 -4.77073,-1.87087 -5.33199,-4.39655 z"
     id="path32"
     inkscape:connector-curvature="0"
     style="fill:#a272a9" /><path
     class="st2"
     d="m 620.24952,190.70727 c 0,3.08694 -2.52568,5.51908 -5.51908,5.51908 -3.08695,0 -5.51908,-2.52568 -5.51908,-5.51908 0,-1.12253 0.37417,-2.24505 0.93543,-3.08694 1.02899,-1.4967 2.71277,-2.43214 4.58365,-2.43214 0.93543,0 1.87087,0.28063 2.61922,0.65481 1.77733,0.93543 2.89986,2.71276 2.89986,4.86427 z"
     id="path34"
     inkscape:connector-curvature="0"
     style="fill:#ffffff" /><path
     class="st17"
     d="M 615.66587,178.92076 602.56975,125.60084 C 599.76344,114.09496 589.47363,106.0502 577.59358,106.0502 l -32.17904,0 c -1.96442,-17.586216 -16.83787,-31.337136 -34.98535,-31.337136 -18.05394,0 -33.02093,13.75092 -34.98535,31.337136 l -29.93399,0 c -11.88006,0 -22.16986,8.04476 -24.97618,19.55064 l -13.09612,53.31992 -1.68378,6.92224 c 0.74835,-0.46772 1.68378,-0.65481 2.61922,-0.65481 1.87087,0 3.64821,1.02898 4.58364,2.43214 l 1.68379,-6.92224 13.09612,-53.31992 c 2.05796,-8.23185 9.35437,-13.84447 17.77331,-13.84447 l 29.93399,0 c 1.87087,17.67976 16.83787,31.52423 34.98535,31.52423 18.14748,0 33.20802,-13.84447 34.98535,-31.52423 l 32.0855,0 c 8.41893,0 15.71534,5.70617 17.7733,13.84447 l 13.09612,53.31992 c -3.36757,2.05796 -5.51908,5.79971 -5.51908,10.00918 0,6.54806 5.332,11.88005 11.88006,11.88005 6.54806,0 11.88005,-5.33199 11.88005,-11.88005 0,-6.26743 -4.86427,-11.31879 -10.94462,-11.78651 z M 539.80192,113.5337 c -1.77733,14.59282 -14.21865,25.91161 -29.37273,25.91161 -15.06054,0 -27.50185,-11.31879 -29.37273,-25.91161 -0.0935,-1.21607 -0.18709,-2.43214 -0.18709,-3.64821 0,-1.30961 0.0935,-2.61922 0.28063,-3.83529 1.87088,-14.499276 14.31219,-25.724516 29.27919,-25.724516 14.96699,0 27.40831,11.22524 29.27918,25.724516 0.18709,1.21607 0.28063,2.52568 0.28063,3.83529 0,1.21607 0,2.43214 -0.18708,3.64821 z m 74.92852,82.69265 c -3.08695,0 -5.51908,-2.52568 -5.51908,-5.51908 0,-1.12253 0.37417,-2.24505 0.93543,-3.08694 1.02899,-1.4967 2.71277,-2.43214 4.58365,-2.43214 0.93543,0 1.87087,0.28063 2.61922,0.65481 1.68379,0.93543 2.89986,2.80631 2.89986,4.86427 0,3.08694 -2.43214,5.51908 -5.51908,5.51908 z"
     id="path36"
     inkscape:connector-curvature="0"
     style="fill:#76c0c2" /><path
     class="st20"
     d="m 414.64042,180.69809 c -1.87087,-1.12252 -4.02238,-1.87087 -6.36097,-1.87087 -0.28063,0 -0.65481,0 -0.93544,0.0935 -6.08034,0.46772 -10.94462,5.61262 -10.94462,11.88005 0,4.20947 2.24505,7.95122 5.51908,10.00918 l -13.09612,53.22638 c -2.05796,8.23184 -9.35437,13.93801 -17.7733,13.93801 l -31.05652,0 c -1.87087,-17.67976 -16.83787,-31.43069 -34.98535,-31.43069 -18.14748,0 -33.11448,13.75093 -34.98535,31.43069 l -31.05652,0 c -8.41893,0 -15.71534,-5.70617 -17.7733,-13.93801 l -13.09612,-53.22638 c 3.36757,-2.05796 5.51907,-5.79971 5.51907,-10.00918 0,-6.54806 -5.33199,-11.88005 -11.88005,-11.88005 -6.54806,0 -11.88005,5.33199 -11.88005,11.88005 0,6.26743 4.86427,11.31879 10.94462,11.78651 l 13.09612,53.31992 c 2.80631,11.50588 13.09612,19.55064 24.97617,19.55064 l 31.05651,0 c 1.87088,17.67976 16.83787,31.43069 34.98536,31.43069 18.14748,0 33.11447,-13.75093 34.98535,-31.43069 l 31.05651,0 c 11.88005,0 22.16986,-8.04476 24.97618,-19.55064 l 13.09612,-53.31992 c 6.08034,-0.46772 10.94461,-5.61262 10.94461,-11.78651 0.28063,-4.30301 -1.96442,-8.04476 -5.33199,-10.10272 z m -208.04123,13.09612 0,0 c -1.02899,1.4967 -2.71277,2.43214 -4.58365,2.43214 -0.93543,0 -1.87087,-0.28063 -2.61922,-0.65481 -1.68379,-0.93543 -2.89986,-2.80631 -2.89986,-4.86427 0,-3.08694 2.52568,-5.61262 5.51908,-5.61262 3.08695,0 5.51908,2.52568 5.51908,5.61262 0,1.12252 -0.28063,2.24505 -0.93543,3.08694 z m 127.87426,81.57013 c -1.87087,14.49927 -14.31219,25.81806 -29.27918,25.81806 -15.06054,0 -27.50186,-11.22524 -29.37273,-25.81806 -0.18709,-1.21607 -0.18709,-2.43214 -0.18709,-3.74175 0,-1.30962 0.0935,-2.52568 0.18709,-3.74175 1.87087,-14.49928 14.31219,-25.81807 29.37273,-25.81807 15.06054,0 27.50185,11.31879 29.27918,25.81807 0.18709,1.21607 0.18709,2.43213 0.18709,3.74175 0.0935,1.30961 0,2.52568 -0.18709,3.74175 z m 76.51876,-79.7928 c -0.74835,0.46772 -1.68378,0.65481 -2.61922,0.65481 -1.96442,0 -3.6482,-1.02898 -4.58364,-2.43214 -0.56126,-0.84189 -0.93544,-1.96442 -0.93544,-3.08694 0,-2.15151 1.21607,-3.92884 2.89986,-4.86427 0.74835,-0.46772 1.68378,-0.65481 2.61922,-0.65481 1.87087,0 3.64821,1.02898 4.58364,2.43214 0.56126,0.84189 0.93544,1.96441 0.93544,3.08694 0,2.1515 -1.12252,3.92884 -2.89986,4.86427 z"
     id="path38"
     inkscape:connector-curvature="0"
     style="fill:#55a8c9" /><path
     class="st17"
     d="m 422.12392,41.879213 c 1.96442,0 3.46111,0.374175 4.39655,0.841893 l 0,3.928836 -1.77733,0 -0.28063,-2.338593 c -0.84189,-0.187087 -1.4967,-0.280631 -2.33859,-0.280631 -3.18049,0 -4.77073,2.619224 -4.77073,6.267429 0,3.648207 1.59024,6.267427 4.77073,6.267427 0.84189,0 1.4967,-0.0935 2.33859,-0.28063 l 0.28063,-2.33859 1.77733,0 0,3.92883 c -1.02898,0.46772 -2.43213,0.8419 -4.39655,0.8419 -4.95782,0 -7.10933,-3.83529 -7.10933,-8.418937 0,-4.583642 2.24505,-8.418934 7.10933,-8.418934 z"
     id="path40"
     inkscape:connector-curvature="0"
     style="fill:#76c0c2" /><path
     class="st17"
     d="m 438.68116,58.717084 c -5.42554,0 -6.17389,-4.11592 -6.17389,-8.418937 0,-4.303011 0.74835,-8.418934 6.17389,-8.418934 5.42553,0 6.17388,4.115923 6.17388,8.418934 0,4.303017 -0.6548,8.418937 -6.17388,8.418937 z m 0,-14.686366 c -3.36758,0 -3.8353,2.899856 -3.8353,6.267429 0,3.367577 0.46772,6.267427 3.8353,6.267427 3.36757,0 3.83529,-2.89985 3.83529,-6.267427 0,-3.367573 -0.46772,-6.267429 -3.83529,-6.267429 z"
     id="path42"
     inkscape:connector-curvature="0"
     style="fill:#76c0c2" /><path
     class="st17"
     d="m 452.15145,44.217806 -1.96442,-0.187088 0,-1.870874 6.17389,0 0,1.77733 -1.96442,0.187088 0,12.067142 5.05136,0 0.18709,-1.96442 1.77733,0 0,4.11592 -11.31879,0 0,-1.77733 1.96442,-0.18708 0,-12.160688 z"
     id="path44"
     inkscape:connector-curvature="0"
     style="fill:#76c0c2" /><path
     class="st17"
     d="m 468.24097,44.217806 -1.96442,-0.187088 0,-1.870874 6.17389,0 0,1.77733 -1.96442,0.187088 0,12.067142 5.05136,0 0.18709,-1.96442 1.77733,0 0,4.11592 -11.31879,0 0,-1.77733 1.96442,-0.18708 0,-12.160688 z"
     id="path46"
     inkscape:connector-curvature="0"
     style="fill:#76c0c2" /><path
     class="st17"
     d="m 481.43064,56.565574 2.24505,-0.28063 3.92883,-12.067138 -2.24505,-0.280632 0,-1.77733 5.33199,0 4.67719,14.21865 2.24505,0.28063 0,1.77733 -7.01578,0 0,-1.77733 2.24505,-0.28063 -0.84189,-2.71277 -5.23845,0 -0.8419,2.71277 2.24505,0.28063 0,1.77733 -7.01578,0 0,-1.87088 z m 6.17388,-4.957814 3.92884,0 -1.96442,-6.548061 -1.96442,6.548061 z"
     id="path48"
     inkscape:connector-curvature="0"
     style="fill:#76c0c2" /><path
     class="st17"
     d="m 514.35803,46.649942 c 0,1.216069 -0.56127,2.432137 -1.59025,3.274031 1.4967,0.748349 2.05796,2.245049 2.05796,3.835291 0,2.61923 -1.40315,4.67719 -5.61262,4.67719 l -7.38995,0 0,-1.77733 1.96441,-0.18709 0,-12.160685 -1.96441,-0.187087 0,-1.964418 7.29641,0 c 3.92883,0 5.23845,2.057962 5.23845,4.490098 z m -5.14491,-2.338593 -3.08694,0 0,4.583643 3.27403,0 c 1.96442,0 2.52568,-1.216069 2.52568,-2.338593 0,-1.122525 -0.46772,-2.24505 -2.71277,-2.24505 z m -3.08694,11.973595 3.27403,0 c 2.52568,0 3.08694,-1.30961 3.08694,-2.52568 0,-1.77733 -0.84189,-2.619223 -2.9934,-2.619223 l -3.36757,0 0,5.144903 z"
     id="path50"
     inkscape:connector-curvature="0"
     style="fill:#76c0c2" /><path
     class="st17"
     d="m 526.7058,58.717084 c -5.42554,0 -6.17389,-4.11592 -6.17389,-8.418937 0,-4.303011 0.74835,-8.418934 6.17389,-8.418934 5.42553,0 6.17388,4.115923 6.17388,8.418934 0,4.303017 -0.74835,8.418937 -6.17388,8.418937 z m 0,-14.686366 c -3.36758,0 -3.8353,2.899856 -3.8353,6.267429 0,3.367577 0.46772,6.267427 3.8353,6.267427 3.36757,0 3.83529,-2.89985 3.83529,-6.267427 0,-3.367573 -0.56126,-6.267429 -3.83529,-6.267429 z"
     id="path52"
     inkscape:connector-curvature="0"
     style="fill:#76c0c2" /><path
     class="st17"
     d="m 550.84008,46.83703 c 0,2.338593 -0.8419,3.928836 -3.36758,4.490098 0.18709,0.187088 0.37418,0.467719 0.56126,0.74835 l 1.87088,3.274026 c 0.56126,0.93544 1.30961,1.21607 2.05796,1.21607 0.65481,0 1.12253,-0.0935 1.4967,-0.18708 l 0,2.05796 c -0.37417,0.0935 -1.12252,0.18709 -1.59024,0.18709 -1.96442,0 -3.18049,-0.65481 -4.39656,-2.80632 l -2.05796,-3.367571 c -0.46772,-0.74835 -0.65481,-0.841893 -1.40316,-0.935437 l -1.77733,0 0,4.770728 1.96442,0.18709 0,1.77733 -6.17388,0 0,-1.77733 1.96441,-0.18709 0,-12.160682 -1.96441,-0.187088 0,-1.77733 7.20286,0 c 4.30301,0 5.61263,1.77733 5.61263,4.677186 z m -8.51248,2.619224 3.27403,0 c 2.33859,0 2.71277,-1.122525 2.71277,-2.619224 0,-1.403156 -0.37418,-2.525681 -2.71277,-2.525681 l -3.27403,0 0,5.144905 z"
     id="path54"
     inkscape:connector-curvature="0"
     style="fill:#76c0c2" /><path
     class="st17"
     d="m 556.26561,56.565574 2.24505,-0.28063 3.92884,-12.067138 -2.24505,-0.280632 0,-1.77733 5.33199,0 4.67719,14.21865 2.24505,0.28063 0,1.77733 -7.01578,0 0,-1.77733 2.24505,-0.28063 -0.8419,-2.71277 -5.23845,0 -0.84189,2.71277 2.24505,0.28063 0,1.77733 -7.01578,0 0,-1.87088 z m 6.08034,-4.957814 3.92884,0 -1.96442,-6.548061 -1.96442,6.548061 z"
     id="path56"
     inkscape:connector-curvature="0"
     style="fill:#76c0c2" /><path
     class="st17"
     d="m 588.81883,42.159844 0,4.115924 -1.77733,0 -0.18709,-1.964419 -3.08694,0 0,12.067145 1.96441,0.18708 0,1.77733 -6.17388,0 0,-1.77733 1.96442,-0.18708 0,-12.067145 -3.08695,0 -0.18708,1.964419 -1.96442,0 0,-4.115924 12.53486,0 z"
     id="path58"
     inkscape:connector-curvature="0"
     style="fill:#76c0c2" /><path
     class="st17"
     d="m 597.89257,44.311349 0,4.583643 3.36757,0 0.18709,-1.964418 1.77733,0 0,6.08034 -1.77733,0 -0.18709,-1.964417 -3.36757,0 0,5.144907 5.42553,0 0.18709,-1.96442 1.77733,0 0,4.11592 -11.69296,0 0,-1.77733 1.96441,-0.18708 0,-12.160688 -1.96441,-0.187088 0,-1.870874 11.69296,0 0,4.115924 -1.77733,0 -0.18709,-1.964419 -5.42553,0 z"
     id="path60"
     inkscape:connector-curvature="0"
     style="fill:#76c0c2" /><path
     class="st20"
     d="m 280.03101,324.00707 c 1.96441,0 3.46111,0.37418 4.39655,0.84189 l 0,3.92884 -1.77733,0 -0.28063,-2.33859 c -0.84189,-0.18709 -1.4967,-0.28063 -2.33859,-0.28063 -3.18049,0 -4.77073,2.61922 -4.77073,6.26743 0,3.6482 1.59024,6.26742 4.77073,6.26742 0.84189,0 1.4967,-0.0935 2.33859,-0.28063 l 0.28063,-2.33859 1.77733,0 0,3.92884 c -1.02898,0.46771 -2.43214,0.84189 -4.39655,0.84189 -4.95782,0 -7.10933,-3.83529 -7.10933,-8.41893 0,-4.58365 2.24505,-8.41894 7.10933,-8.41894 z"
     id="path62"
     inkscape:connector-curvature="0"
     style="fill:#55a8c9" /><path
     class="st20"
     d="m 296.58824,340.7514 c -5.42553,0 -6.17388,-4.11593 -6.17388,-8.41894 0,-4.30301 0.74835,-8.41893 6.17388,-8.41893 5.42554,0 6.17389,4.11592 6.17389,8.41893 0,4.30301 -0.65481,8.41894 -6.17389,8.41894 z m 0,-14.59282 c -3.36757,0 -3.83529,2.89985 -3.83529,6.26743 0,3.36757 0.46772,6.26742 3.83529,6.26742 3.36758,0 3.8353,-2.89985 3.8353,-6.26742 0,-3.36758 -0.46772,-6.26743 -3.8353,-6.26743 z"
     id="path64"
     inkscape:connector-curvature="0"
     style="fill:#55a8c9" /><path
     class="st20"
     d="m 321.56442,332.42601 c 0,4.58364 -1.4967,8.1383 -6.92224,8.1383 l -6.54806,0 0,-1.87088 1.96442,-0.18708 0,-12.16069 -1.96442,-0.18708 0,-1.77733 6.54806,0 c 5.42554,-0.0935 6.92224,3.36757 6.92224,8.04476 z m -9.26083,5.89325 2.43214,0 c 3.36757,0 4.39655,-2.52568 4.39655,-5.9868 0,-3.46112 -1.02898,-5.9868 -4.39655,-5.9868 l -2.43214,0 0,11.9736 z"
     id="path66"
     inkscape:connector-curvature="0"
     style="fill:#55a8c9" /><path
     class="st20"
     d="m 331.10588,326.43921 0,4.58364 3.36757,0 0.18709,-1.96442 1.77733,0 0,6.08034 -1.77733,0 -0.18709,-1.96442 -3.36757,0 0,5.14491 5.42553,0 0.18709,-1.96442 1.77733,0 0,4.11592 -11.69296,0 0,-1.77733 1.96441,-0.18708 0,-12.16069 -1.96441,-0.18708 0,-1.77733 11.69296,0 0,4.11592 -1.68379,0 -0.18708,-1.96442 -5.51908,0 z"
     id="path68"
     inkscape:connector-curvature="0"
     style="fill:#55a8c9" /><path
     class="st16"
     d="m 689.7525,328.7778 c 0,1.77733 1.21607,1.96442 3.36757,2.24505 3.27403,0.37417 5.14491,1.4967 5.14491,4.67719 0,2.33859 -1.21607,5.1449 -6.17389,5.1449 -1.4967,0 -3.55466,-0.46772 -4.77073,-0.93544 l 0,-3.74175 1.77733,0 0.28064,2.24505 c 0.74835,0.18709 1.4967,0.28063 2.71276,0.28063 2.89986,0 3.74175,-1.30961 3.74175,-2.99339 0,-1.77734 -0.84189,-2.15151 -3.18048,-2.43214 l 0,0 c -3.92884,-0.46772 -5.332,-1.68379 -5.332,-4.39656 0,-1.96441 0.93544,-4.77073 5.61263,-4.77073 1.96442,0 3.46111,0.37418 4.39655,0.8419 l 0,3.83529 -1.77733,0 -0.28063,-2.33859 c -0.84189,-0.18709 -1.4967,-0.28063 -2.33859,-0.28063 -2.61923,0 -3.18049,1.21606 -3.18049,2.61922 z"
     id="path70"
     inkscape:connector-curvature="0"
     style="fill:#a272a9" /><path
     class="st16"
     d="m 707.99353,331.02285 6.82869,0 0,-4.67719 -1.96442,-0.18708 0,-1.77733 6.17389,0 0,1.77733 -1.96442,0.18708 0,12.16069 1.96442,0.18708 0,1.77733 -6.17389,0 0,-1.77733 1.96442,-0.18708 0,-5.332 -6.82869,0 0,5.332 1.96441,0.18708 0,1.77733 -6.17388,0 0,-1.77733 1.96442,-0.18708 0,-12.16069 -1.96442,-0.18708 0,-1.77733 6.17388,0 0,1.77733 -1.96441,0.18708 0,4.67719 z"
     id="path72"
     inkscape:connector-curvature="0"
     style="fill:#a272a9" /><path
     class="st16"
     d="m 728.66669,338.50635 1.96442,0.18708 0,1.77733 -6.17389,0 0,-1.77733 1.96442,-0.18708 0,-12.16069 -1.96442,-0.18708 0,-1.77733 6.17389,0 0,1.77733 -1.96442,0.18708 0,12.16069 z"
     id="path74"
     inkscape:connector-curvature="0"
     style="fill:#a272a9" /><path
     class="st16"
     d="m 748.68504,329.24552 c 0,2.61922 -1.40315,5.05136 -5.61262,5.05136 l -2.89985,0 0,4.11592 1.96441,0.18709 0,1.77733 -6.17388,0 0,-1.68379 1.96442,-0.18708 0,-12.16069 -1.96442,-0.18708 0,-1.77733 7.10932,0 c 4.20947,-0.0935 5.61262,2.24504 5.61262,4.86427 z m -8.41893,2.89985 2.89986,0 c 2.61922,0 3.08694,-1.59024 3.08694,-2.89985 0,-1.30961 -0.46772,-2.89986 -3.08694,-2.89986 l -2.89986,0 0,5.79971 z"
     id="path76"
     inkscape:connector-curvature="0"
     style="fill:#a272a9" /><g
     id="Glyph_17_"
     transform="matrix(0.9354372,0,0,0.9354372,20.63427,42.159844)"><path
       class="st18"
       d="m 57.2,137.5 c -12,0 -21.7,9.7 -21.7,21.7 0,10.1 6.9,18.6 16.3,21 l 0,-5.7 c -5.4,1.2 -6.5,-2.5 -6.5,-2.5 -0.9,-2.2 -2.1,-2.8 -2.1,-2.8 -1.7,-1.2 0.1,-1.2 0.1,-1.2 1.9,0.1 2.9,2 2.9,2 1.8,3.1 4.8,2 5.7,1.5 0.3,-1.3 1,-2.1 1.7,-2.6 -4.9,-0.5 -10.1,-2.3 -10.1,-10.6 0,-2.3 0.8,-4.3 2.2,-5.8 -0.2,-0.5 -1,-2.7 0.2,-5.7 0,0 1.8,-0.6 5.9,2.2 1.7,-0.5 3.6,-0.7 5.4,-0.7 1.8,0 3.7,0.2 5.4,0.7 4.1,-2.8 5.9,-2.2 5.9,-2.2 1.2,3 0.4,5.1 0.2,5.7 1.4,1.5 2.2,3.4 2.2,5.8 0,8.4 -5.2,10.1 -10,10.6 0.9,0.6 1.8,1.7 1.8,3.9 l 0,7.4 c 9.4,-2.4 16.3,-10.9 16.3,-21 0,-12 -9.8,-21.7 -21.8,-21.7 z"
       id="path79"
       inkscape:connector-curvature="0"
       style="fill:#898989" /></g><path
     class="st20"
     d="m 302.76213,263.11011 -8.60602,8.60602 8.60602,8.60602 -3.6482,3.64821 -11.03816,-12.25423 11.03816,-12.25423 3.6482,3.64821 z m 19.64418,8.51248 -11.03816,12.25422 -3.6482,-3.6482 8.60602,-8.60602 -8.60602,-8.60603 3.6482,-3.6482 11.03816,12.25423 z"
     id="path81"
     inkscape:connector-curvature="0"
     style="fill:#55a8c9" /><path
     class="st17"
     d="m 505.00365,96.508744 c 0.74835,0.74835 1.21607,1.77733 1.21607,2.9934 0,0.748346 -0.18709,1.496696 -0.56126,2.151506 -0.37418,0.6548 -0.93544,1.12252 -1.4967,1.4967 l 0,13.75092 c 0.65481,0.37418 1.12252,0.8419 1.4967,1.4967 0.37417,0.65481 0.56126,1.30961 0.56126,2.15151 0,1.21607 -0.46772,2.24505 -1.21607,2.9934 -0.74835,0.74835 -1.77733,1.21607 -2.9934,1.21607 -1.21606,0 -2.24504,-0.46772 -2.99339,-1.21607 -0.74835,-0.74835 -1.21607,-1.77733 -1.21607,-2.9934 0,-0.74835 0.18708,-1.4967 0.56126,-2.15151 0.37417,-0.6548 0.93544,-1.12252 1.4967,-1.4967 l 0,-13.84447 c -0.65481,-0.37417 -1.12253,-0.84189 -1.4967,-1.4967 -0.37418,-0.6548 -0.56126,-1.30961 -0.56126,-2.151496 0,-1.21607 0.46772,-2.24505 1.21607,-2.9934 0.74835,-0.74835 1.77733,-1.21607 2.99339,-1.21607 1.21607,0.0935 2.24505,0.46772 2.9934,1.30961 z m -1.4967,4.490096 c 0.37418,-0.37417 0.56127,-0.84189 0.56127,-1.496696 0,-0.6548 -0.18709,-1.12252 -0.56127,-1.4967 -0.37417,-0.37417 -0.84189,-0.56126 -1.4967,-0.56126 -0.6548,0 -1.12252,0.18709 -1.4967,0.56126 -0.37417,0.37418 -0.56126,0.84189 -0.56126,1.4967 0,0.654806 0.18709,1.122516 0.56126,1.496696 0.37418,0.37417 0.8419,0.56126 1.4967,0.65481 0.65481,-0.0935 1.12253,-0.28064 1.4967,-0.65481 z m 0,21.04734 c 0.37418,-0.37418 0.56127,-0.8419 0.56127,-1.4967 0,-0.65481 -0.18709,-1.12253 -0.56127,-1.4967 -0.37417,-0.37418 -0.84189,-0.56126 -1.4967,-0.56126 -0.6548,0 -1.12252,0.18708 -1.4967,0.56126 -0.37417,0.37417 -0.56126,0.84189 -0.56126,1.4967 0,0.6548 0.18709,1.12252 0.56126,1.4967 0.37418,0.37417 0.8419,0.56126 1.4967,0.6548 0.65481,-0.0935 1.12253,-0.28063 1.4967,-0.6548 z m 18.98938,-3.64821 c 0.37417,0.65481 0.56126,1.30961 0.56126,2.15151 0,1.21607 -0.46772,2.24505 -1.21607,2.9934 -0.74835,0.74835 -1.77733,1.21606 -2.9934,1.21606 -1.21606,0 -2.24505,-0.46771 -2.9934,-1.21606 -0.74834,-0.74835 -1.21606,-1.77733 -1.21606,-2.9934 0,-0.74835 0.18708,-1.4967 0.56126,-2.15151 0.37417,-0.6548 0.93544,-1.12252 1.4967,-1.4967 l 0,-13.18966 c 0,-0.56126 -0.28063,-1.02898 -0.65481,-1.40316 -0.37417,-0.37417 -0.93543,-0.6548 -1.40315,-0.6548 l -2.05797,0 0,4.11592 -6.36097,-6.360966 6.36097,-6.36098 0,4.30301 c 0,0 0,0 0.28064,0 l 1.87087,0 c 1.68379,0.0935 3.08694,0.74835 4.30301,1.96442 1.21607,1.216066 1.87088,2.712766 1.96442,4.303006 l 0,7.76413 c 0,3.27403 0,5.05136 0,5.42554 0.65481,0.46772 1.12252,0.93544 1.4967,1.59024 z m -2.15151,3.64821 c 0.37418,-0.37418 0.56127,-0.8419 0.56127,-1.4967 0,-0.65481 -0.18709,-1.12253 -0.56127,-1.4967 -0.37417,-0.37418 -0.84189,-0.56126 -1.4967,-0.56126 -0.6548,0 -1.12252,0.18708 -1.4967,0.56126 -0.37417,0.37417 -0.56126,0.84189 -0.56126,1.4967 0,0.6548 0.18709,1.12252 0.56126,1.4967 0.37418,0.37417 0.8419,0.56126 1.4967,0.6548 0.65481,-0.0935 1.12253,-0.28063 1.4967,-0.6548 z"
     id="path83"
     inkscape:connector-curvature="0"
     style="fill:#76c0c2" /><path
     class="st16"
     d="m 723.52178,261.98758 c 0.37418,0.65481 0.74835,1.30962 1.30962,1.87088 0.56126,0.56126 1.12252,1.02898 1.87087,1.30961 0.65481,0.37418 1.40316,0.56126 2.15151,0.74835 -0.65481,1.21607 -1.4967,2.43214 -2.3386,3.64821 -0.93543,1.21606 -1.96442,2.43213 -3.08694,3.55466 -1.4967,1.40315 -2.89986,2.61922 -4.20947,3.55466 l -1.12252,5.89325 -6.92224,6.92224 -0.18708,-6.17389 4.39655,-4.39655 c -1.59024,0.74835 -2.89986,1.21607 -3.83529,1.40315 -0.93544,0.18709 -1.4967,0.28063 -1.4967,0.28063 l -1.96442,-1.96441 c 0,0 0.0935,-0.46772 0.28063,-1.40316 0.18709,-0.93544 0.65481,-2.24505 1.40316,-3.83529 l -4.30301,4.30301 -6.17389,-0.18709 6.92224,-6.92223 5.89325,-1.12253 c 0.93544,-1.30961 2.15151,-2.71277 3.64821,-4.20947 1.12252,-1.12252 2.33859,-2.1515 3.55466,-3.08694 1.21606,-0.93544 2.43213,-1.68379 3.6482,-2.33859 0,0.74835 0.18709,1.4967 0.56126,2.1515 z m 7.10933,-5.61262 c 1.4967,-0.46772 2.24505,-0.65481 2.24505,-0.65481 0,0 -0.18709,0.74835 -0.65481,2.24505 -0.46772,1.4967 -1.21607,3.27403 -2.24505,5.61263 -1.4967,-0.18709 -2.61922,-0.65481 -3.46112,-1.4967 -0.84189,-0.8419 -1.30961,-1.96442 -1.4967,-3.46112 2.3386,-1.02898 4.11593,-1.77733 5.61263,-2.24505 z"
     id="path85"
     inkscape:connector-curvature="0"
     style="fill:#a272a9" /><circle
     class="st2"
     cx="408.37296"
     cy="190.70728"
     r="5.5190797"
     id="circle87"
     style="fill:#ffffff" /><polygon
     class="st25"
     points="1032.1,168.8 1049.4,158.8 1032.1,148.8 "
     id="polygon89"
     transform="matrix(0.9354372,0,0,0.9354372,-3.8657225,42.159844)"
     style="fill:#a477aa" /></svg>